<?xml version="1.0" encoding="UTF-8" standalone="no"?>
<svg width="52px" height="50px" viewBox="0 0 52 50" version="1.1" xmlns="http://www.w3.org/2000/svg" xmlns:xlink="http://www.w3.org/1999/xlink" xmlns:sketch="http://www.bohemiancoding.com/sketch/ns">
    <!-- Generator: Sketch 3.4.4 (17248) - http://www.bohemiancoding.com/sketch -->
    <title>Genomics</title>
    <desc>Created with Sketch.</desc>
    <defs></defs>
    <g id="Page-1" stroke="none" stroke-width="1" fill="none" fill-rule="evenodd" sketch:type="MSPage">
        <g id="Genomics" sketch:type="MSLayerGroup">
            <g id="Layer_1" sketch:type="MSShapeGroup">
                <g id="Group">
                    <g id="art">
                        <g id="Group" transform="translate(26.500000, 17.500000) rotate(-180.000000) translate(-26.500000, -17.500000) translate(9.000000, 13.000000)">
                            <path d="M5.95,6.79 L21.87,6.79 L23.72,4.95 L21.87,3.1 L5.95,3.1 L5.95,6.79 L5.95,6.79 Z" id="Shape" fill="#F8E81C"></path>
                            <circle id="Oval" fill="#F8E81C" cx="3.83" cy="4.94" r="3.08"></circle>
                            <circle id="Oval" fill="#7ED321" cx="30.17" cy="4.94" r="4"></circle>
                        </g>
                        <g id="Group" transform="translate(25.500000, 32.500000) rotate(-180.000000) translate(-25.500000, -32.500000) translate(8.000000, 28.000000)">
                            <circle id="Oval" fill="#F8E81C" cx="4.98" cy="4.06" r="4"></circle>
                            <circle id="Oval" fill="#7ED321" cx="31.09" cy="4.06" r="3.08"></circle>
                            <path d="M11.4,4.06 L13.25,5.91 L28.94,5.91 L28.94,2.22 L13.25,2.22 L11.4,4.06 L11.4,4.06 Z" id="Shape" fill="#7ED321"></path>
                        </g>
                        <g id="Group" transform="translate(1.000000, 0.000000)">
                            <circle id="Oval" fill="#D0011B" cx="3.96" cy="4.43" r="3.07"></circle>
                            <path d="M6.04,6.27 L37.75,6.27 L39.59,4.43 L37.75,2.59 L6.04,2.58 L6.04,6.27 L6.04,6.27 Z" id="Shape" fill="#D0011B"></path>
                            <circle id="Oval" fill="#4990E2" cx="46.05" cy="4.43" r="4"></circle>
                        </g>
                        <g id="Group" transform="translate(0.000000, 41.000000)">
                            <path d="M11.32,4.57 L13.17,6.42 L44.91,6.42 L44.91,2.73 L13.17,2.73 L11.32,4.57 L11.32,4.57 Z" id="Shape" fill="#4990E2"></path>
                            <circle id="Oval" fill="#D0011B" cx="4.93" cy="4.57" r="4"></circle>
                            <circle id="Oval" fill="#4990E2" cx="47.06" cy="4.57" r="3.08"></circle>
                        </g>
                    </g>
                </g>
            </g>
        </g>
    </g>
</svg>