<?xml version="1.0" encoding="UTF-8" standalone="no"?>
<svg width="42px" height="50px" viewBox="0 0 42 50" version="1.1" xmlns="http://www.w3.org/2000/svg" xmlns:xlink="http://www.w3.org/1999/xlink" xmlns:sketch="http://www.bohemiancoding.com/sketch/ns">
    <!-- Generator: Sketch 3.4.4 (17248) - http://www.bohemiancoding.com/sketch -->
    <title>logo</title>
    <desc>Created with Sketch.</desc>
    <defs></defs>
    <g id="Page-1" stroke="none" stroke-width="1" fill="none" fill-rule="evenodd" sketch:type="MSPage">
        <g id="logo" sketch:type="MSLayerGroup" transform="translate(1.000000, 1.000000)">
            <g id="Down" transform="translate(20.000000, 39.000000) scale(-1, -1) translate(-20.000000, -39.000000) translate(16.000000, 30.000000)" stroke-width="2" sketch:type="MSShapeGroup">
                <path d="M4,18 L4,9.51000002" id="Line" stroke="#F6A623" stroke-linecap="square"></path>
                <circle id="Oval-2" stroke="#4990E2" cx="4" cy="4" r="4"></circle>
            </g>
            <g id="Up" transform="translate(16.000000, 0.000000)" stroke-width="2" sketch:type="MSShapeGroup">
                <path d="M4,18 L4,9.51000002" id="Line" stroke="#F6A623" stroke-linecap="square"></path>
                <circle id="Oval-2" stroke="#4990E2" cx="4" cy="4" r="4"></circle>
            </g>
            <g id="45-degree-R" transform="translate(25.000000, 8.000000)" stroke-width="2" sketch:type="MSShapeGroup">
                <path d="M1,23.7570496 L7,17.7570496" id="Line" stroke="#F6A623" stroke-linecap="square" transform="translate(4.000000, 20.878525) scale(1, -1) translate(-4.000000, -20.878525) "></path>
                <path d="M1,14 L7,8.00000002" id="Line" stroke="#F6A623" stroke-linecap="square"></path>
                <circle id="Oval-2" stroke="#4990E2" cx="11" cy="4" r="4"></circle>
                <circle id="Oval-2" stroke="#4990E2" cx="11" cy="28" r="4"></circle>
            </g>
            <g id="45-degree-L" transform="translate(7.500000, 24.000000) scale(-1, 1) translate(-7.500000, -24.000000) translate(0.000000, 8.000000)" stroke-width="2" sketch:type="MSShapeGroup">
                <path d="M1,23.7570496 L7,17.7570496" id="Line" stroke="#F6A623" stroke-linecap="square" transform="translate(4.000000, 20.878525) scale(1, -1) translate(-4.000000, -20.878525) "></path>
                <path d="M1,14 L7,8.00000002" id="Line" stroke="#F6A623" stroke-linecap="square"></path>
                <circle id="Oval-2" stroke="#4990E2" cx="11" cy="4" r="4"></circle>
                <circle id="Oval-2" stroke="#4990E2" cx="11" cy="28" r="4"></circle>
            </g>
            <circle id="Oval-c" stroke="#4990E2" stroke-width="3" sketch:type="MSShapeGroup" cx="20" cy="24" r="6"></circle>
        </g>
    </g>
</svg>