<?xml version="1.0" encoding="UTF-8" standalone="no"?>
<svg width="168px" height="200px" viewBox="0 0 168 200" version="1.1" xmlns="http://www.w3.org/2000/svg" xmlns:xlink="http://www.w3.org/1999/xlink" xmlns:sketch="http://www.bohemiancoding.com/sketch/ns">
    <!-- Generator: Sketch 3.4.4 (17248) - http://www.bohemiancoding.com/sketch -->
    <title>logo</title>
    <desc>Created with Sketch.</desc>
    <defs></defs>
    <g id="Page-1" stroke="none" stroke-width="1" fill="none" fill-rule="evenodd" sketch:type="MSPage">
        <g id="logo" sketch:type="MSLayerGroup" transform="translate(4.000000, 4.000000)">
            <g id="Down" transform="translate(80.000000, 156.000000) scale(-1, -1) translate(-80.000000, -156.000000) translate(64.000000, 120.000000)" stroke-width="8" sketch:type="MSShapeGroup">
                <path d="M16,72.0000001 L16,38.0400001" id="Line" stroke="#F6A623" stroke-linecap="square"></path>
                <circle id="Oval-2" stroke="#4990E2" cx="16" cy="16" r="16"></circle>
            </g>
            <g id="Up" transform="translate(64.000000, 0.000000)" stroke-width="8" sketch:type="MSShapeGroup">
                <path d="M16,72.0000001 L16,38.0400001" id="Line" stroke="#F6A623" stroke-linecap="square"></path>
                <circle id="Oval-2" stroke="#4990E2" cx="16" cy="16" r="16"></circle>
            </g>
            <g id="45-degree-R" transform="translate(100.000000, 32.000000)" stroke-width="8" sketch:type="MSShapeGroup">
                <path d="M4,95.0281983 L28,71.0281985" id="Line" stroke="#F6A623" stroke-linecap="square" transform="translate(16.000000, 83.514099) scale(1, -1) translate(-16.000000, -83.514099) "></path>
                <path d="M4,56.0000001 L28,32.0000001" id="Line" stroke="#F6A623" stroke-linecap="square"></path>
                <circle id="Oval-2" stroke="#4990E2" cx="44" cy="16" r="16"></circle>
                <circle id="Oval-2" stroke="#4990E2" cx="44" cy="112" r="16"></circle>
            </g>
            <g id="45-degree-L" transform="translate(30.000000, 96.000000) scale(-1, 1) translate(-30.000000, -96.000000) translate(0.000000, 32.000000)" stroke-width="8" sketch:type="MSShapeGroup">
                <path d="M4,95.0281983 L28,71.0281985" id="Line" stroke="#F6A623" stroke-linecap="square" transform="translate(16.000000, 83.514099) scale(1, -1) translate(-16.000000, -83.514099) "></path>
                <path d="M4,56.0000001 L28,32.0000001" id="Line" stroke="#F6A623" stroke-linecap="square"></path>
                <circle id="Oval-2" stroke="#4990E2" cx="44" cy="16" r="16"></circle>
                <circle id="Oval-2" stroke="#4990E2" cx="44" cy="112" r="16"></circle>
            </g>
            <circle id="Oval-c" stroke="#4990E2" stroke-width="12" sketch:type="MSShapeGroup" cx="80" cy="96" r="24"></circle>
        </g>
    </g>
</svg>