<?xml version="1.0" encoding="UTF-8" standalone="no"?>
<svg width="44px" height="69px" viewBox="0 0 44 69" version="1.1" xmlns="http://www.w3.org/2000/svg" xmlns:xlink="http://www.w3.org/1999/xlink" xmlns:sketch="http://www.bohemiancoding.com/sketch/ns">
    <!-- Generator: Sketch 3.4.4 (17248) - http://www.bohemiancoding.com/sketch -->
    <title>reactive</title>
    <desc>Created with Sketch.</desc>
    <defs></defs>
    <g id="Page-1" stroke="none" stroke-width="1" fill="none" fill-rule="evenodd" sketch:type="MSPage">
        <g id="reactive" sketch:type="MSLayerGroup">
            <g id="Layer_1" sketch:type="MSShapeGroup">
                <g id="Group">
                    <g id="art">
                        <circle id="Oval" stroke="#F6A623" cx="17.14" cy="16.26" r="2.45"></circle>
                        <circle id="Oval" stroke="#F6A623" cx="26.39" cy="12.22" r="3.68"></circle>
                        <circle id="Oval" stroke="#F6A623" cx="20.82" cy="3.43" r="2.45"></circle>
                        <path d="M31.14,58 L29.41,55 L41.27,55 L29.47,34.56 L29.06,34.56 L39.21,52 L12.81,52 L9.65,57.48 C9.43028166,57.8605633 9.43028166,58.3294367 9.65,58.71 L13.5,65.38 L38.85,65.38 L43.05,58.1 L43,58 L31.14,58 Z" id="Shape" fill="#4990E2"></path>
                        <path d="M43.52,56.73 L30.14,33.54 C30.031066,33.3549885 29.972457,33.1446855 29.97,32.93 L29.97,28 L31.97,28 C32.2461424,28 32.47,27.7761424 32.47,27.5 L32.47,24.68 C32.47,24.4038576 32.2461424,24.18 31.97,24.18 L12.08,24.18 C11.8038576,24.18 11.58,24.4038576 11.58,24.68 L11.58,27.5 C11.58,27.7761424 11.8038576,28 12.08,28 L14.08,28 L14.08,32.93 C14.0780114,33.144752 14.0193692,33.3551738 13.91,33.54 L0.47,56.73 C0.0344019094,57.4885812 0.0344019094,58.4214188 0.47,59.18 L5.36,67.65 C5.80009568,68.404064 6.60690544,68.8683602 7.48,68.87 L36.48,68.87 C37.3536413,68.8704037 38.1613964,68.4055635 38.6,67.65 L43.49,59.18 C43.9390368,58.4279193 43.9504866,57.4928504 43.52,56.73 L43.52,56.73 Z M39.34,58.47 L36,64.24 C35.781453,64.6185385 35.3770957,64.8512347 34.94,64.85 L9,64.85 C8.58446857,64.8304525 8.20753595,64.6005236 8,64.24 L4.66,58.47 C4.44028166,58.0894367 4.44028166,57.6205633 4.66,57.24 L17.66,34.77 C17.8783014,34.4001613 17.9955523,33.9794373 18,33.55 L18,28 L26,28 L26,33.55 C26.0010612,33.981735 26.1148116,34.4057138 26.33,34.78 L39.33,57.25 C39.5521204,57.6244653 39.5597267,58.0884553 39.35,58.47 L39.34,58.47 Z" id="Shape" fill="#9B9B9B"></path>
                        <path d="M21.55,41.95 L33.52,41.95 L31.72,39.11 L19.91,39.11 L21.55,41.95 L21.55,41.95 Z" id="Shape" fill="#9B9B9B"></path>
                        <path d="M24,46 L25.72,48.97 L37.93,48.97 L36.16,46 L24,46 L24,46 Z" id="Shape" fill="#9B9B9B"></path>
                    </g>
                </g>
            </g>
        </g>
    </g>
</svg>